<mxfile host="app.diagrams.net" modified="2021-09-12T12:45:00.768Z" agent="5.0 (Macintosh; Intel Mac OS X 10_15_7) AppleWebKit/537.36 (KHTML, like Gecko) Chrome/93.0.4577.63 Safari/537.36" etag="SOylyfPB_BjSoECDmwIo" version="15.1.4" type="github" pages="2">
  <diagram id="oL9MQSNbFkMdqf7MfTmI" name="Page-1">
    <mxGraphModel dx="946" dy="1692" grid="1" gridSize="10" guides="1" tooltips="1" connect="1" arrows="1" fold="1" page="1" pageScale="1" pageWidth="827" pageHeight="1169" math="0" shadow="0">
      <root>
        <mxCell id="0" />
        <mxCell id="1" parent="0" />
        <mxCell id="14Od81qQpGycVzDdTx-Z-23" value="Event" style="edgeStyle=orthogonalEdgeStyle;rounded=0;orthogonalLoop=1;jettySize=auto;html=1;exitX=1;exitY=0.5;exitDx=0;exitDy=0;exitPerimeter=0;entryX=0;entryY=0.5;entryDx=0;entryDy=0;" edge="1" parent="1" source="9EhzL9EJCzUO_ZuSx26l-1" target="14Od81qQpGycVzDdTx-Z-19">
          <mxGeometry relative="1" as="geometry" />
        </mxCell>
        <mxCell id="9EhzL9EJCzUO_ZuSx26l-1" value="Event Queue" style="verticalLabelPosition=bottom;verticalAlign=top;html=1;shape=mxgraph.flowchart.parallel_mode;pointerEvents=1" vertex="1" parent="1">
          <mxGeometry y="115.44444444444446" width="95" height="40" as="geometry" />
        </mxCell>
        <mxCell id="14Od81qQpGycVzDdTx-Z-1" style="edgeStyle=orthogonalEdgeStyle;rounded=0;orthogonalLoop=1;jettySize=auto;html=1;exitX=0.5;exitY=0;exitDx=0;exitDy=0;entryX=0.5;entryY=1;entryDx=0;entryDy=0;entryPerimeter=0;" edge="1" parent="1" target="9EhzL9EJCzUO_ZuSx26l-4">
          <mxGeometry relative="1" as="geometry">
            <mxPoint x="255" y="104.94444444444434" as="sourcePoint" />
          </mxGeometry>
        </mxCell>
        <mxCell id="9EhzL9EJCzUO_ZuSx26l-4" value="NoSQL Document DB" style="strokeWidth=2;html=1;shape=mxgraph.flowchart.database;whiteSpace=wrap;" vertex="1" parent="1">
          <mxGeometry x="225" y="-10" width="52.5" height="80" as="geometry" />
        </mxCell>
        <mxCell id="9EhzL9EJCzUO_ZuSx26l-8" value="Product Topic" style="verticalLabelPosition=bottom;verticalAlign=top;html=1;shape=mxgraph.flowchart.parallel_mode;pointerEvents=1" vertex="1" parent="1">
          <mxGeometry x="542" y="-150" width="95" height="40" as="geometry" />
        </mxCell>
        <mxCell id="9EhzL9EJCzUO_ZuSx26l-9" value="Cash Topic" style="verticalLabelPosition=bottom;verticalAlign=top;html=1;shape=mxgraph.flowchart.parallel_mode;pointerEvents=1" vertex="1" parent="1">
          <mxGeometry x="542" y="20" width="95" height="30" as="geometry" />
        </mxCell>
        <mxCell id="9EhzL9EJCzUO_ZuSx26l-10" value="Payment Topic" style="verticalLabelPosition=bottom;verticalAlign=top;html=1;shape=mxgraph.flowchart.parallel_mode;pointerEvents=1" vertex="1" parent="1">
          <mxGeometry x="542" y="150.94" width="95" height="40" as="geometry" />
        </mxCell>
        <mxCell id="9EhzL9EJCzUO_ZuSx26l-11" value="Settlement" style="verticalLabelPosition=bottom;verticalAlign=top;html=1;shape=mxgraph.flowchart.parallel_mode;pointerEvents=1" vertex="1" parent="1">
          <mxGeometry x="542" y="256" width="95" height="40" as="geometry" />
        </mxCell>
        <mxCell id="14Od81qQpGycVzDdTx-Z-11" value="Kafka Producers" style="strokeWidth=2;html=1;shape=mxgraph.flowchart.multi-document;whiteSpace=wrap;" vertex="1" parent="1">
          <mxGeometry x="380" y="105.44" width="90" height="60" as="geometry" />
        </mxCell>
        <mxCell id="14Od81qQpGycVzDdTx-Z-16" value="" style="strokeWidth=2;html=1;shape=mxgraph.flowchart.database;whiteSpace=wrap;" vertex="1" parent="1">
          <mxGeometry x="722" y="-230" width="30" height="30" as="geometry" />
        </mxCell>
        <mxCell id="14Od81qQpGycVzDdTx-Z-18" value="Product Processor" style="rounded=0;whiteSpace=wrap;html=1;" vertex="1" parent="1">
          <mxGeometry x="680" y="-160" width="120" height="50" as="geometry" />
        </mxCell>
        <mxCell id="14Od81qQpGycVzDdTx-Z-24" style="edgeStyle=orthogonalEdgeStyle;rounded=0;orthogonalLoop=1;jettySize=auto;html=1;entryX=0;entryY=0.5;entryDx=0;entryDy=0;entryPerimeter=0;" edge="1" parent="1" source="14Od81qQpGycVzDdTx-Z-19" target="14Od81qQpGycVzDdTx-Z-20">
          <mxGeometry relative="1" as="geometry" />
        </mxCell>
        <mxCell id="14Od81qQpGycVzDdTx-Z-19" value="LB" style="shape=orEllipse;perimeter=ellipsePerimeter;whiteSpace=wrap;html=1;backgroundOutline=1;" vertex="1" parent="1">
          <mxGeometry x="160" y="125.44" width="20" height="20" as="geometry" />
        </mxCell>
        <mxCell id="14Od81qQpGycVzDdTx-Z-22" style="edgeStyle=orthogonalEdgeStyle;rounded=0;orthogonalLoop=1;jettySize=auto;html=1;entryX=0;entryY=0.5;entryDx=0;entryDy=0;entryPerimeter=0;" edge="1" parent="1" source="14Od81qQpGycVzDdTx-Z-20" target="14Od81qQpGycVzDdTx-Z-11">
          <mxGeometry relative="1" as="geometry" />
        </mxCell>
        <mxCell id="14Od81qQpGycVzDdTx-Z-20" value="Event Processor" style="strokeWidth=2;html=1;shape=mxgraph.flowchart.multi-document;whiteSpace=wrap;" vertex="1" parent="1">
          <mxGeometry x="207.25" y="105.44" width="88" height="60" as="geometry" />
        </mxCell>
      </root>
    </mxGraphModel>
  </diagram>
  <diagram id="NM8Si0N-zRcYw0cF7MhT" name="Page-2">
    <mxGraphModel dx="946" dy="523" grid="1" gridSize="10" guides="1" tooltips="1" connect="1" arrows="1" fold="1" page="1" pageScale="1" pageWidth="827" pageHeight="1169" math="0" shadow="0">
      <root>
        <mxCell id="SU-h9doNQVmh27OuuSyN-0" />
        <mxCell id="SU-h9doNQVmh27OuuSyN-1" parent="SU-h9doNQVmh27OuuSyN-0" />
      </root>
    </mxGraphModel>
  </diagram>
</mxfile>
